$MeshFormat
4.1 0 8
$EndMeshFormat
$PhysicalNames
8
2 3 "Left"
2 4 "Right"
2 5 "Front"
2 6 "Back"
2 7 "Bottom"
2 8 "Top"
3 1 "retina"
3 2 "vitreous"
$EndPhysicalNames
$Entities
16 24 12 2
1 0 0 0.5 0 
2 0 0 0 0 
3 0 1 0.5 0 
4 0 1 0 0 
5 1 0 0.5 0 
6 1 0 0 0 
7 1 1 0.5 0 
8 1 1 0 0 
9 0 0 1 0 
10 0 0 0.5 0 
11 0 1 1 0 
12 0 1 0.5 0 
13 1 0 1 0 
14 1 0 0.5 0 
15 1 1 1 0 
16 1 1 0.5 0 
1 -1e-07 -1e-07 -9.999999997511999e-08 1e-07 1e-07 0.5000000999999999 0 2 2 -1 
2 -1e-07 -9.999999994736442e-08 0.4999999 1e-07 1.0000001 0.5000000999999999 0 2 1 -3 
3 -1e-07 0.9999999000000001 -9.999999997511999e-08 1e-07 1.0000001 0.5000000999999999 0 2 4 -3 
4 -1e-07 -9.999999994736442e-08 -1e-07 1e-07 1.0000001 1e-07 0 2 2 -4 
5 0.9999999000000001 -1e-07 -9.999999997511999e-08 1.0000001 1e-07 0.5000000999999999 0 2 6 -5 
6 0.9999999000000001 -9.999999994736442e-08 0.4999999 1.0000001 1.0000001 0.5000000999999999 0 2 5 -7 
7 0.9999999000000001 0.9999999000000001 -9.999999997511999e-08 1.0000001 1.0000001 0.5000000999999999 0 2 8 -7 
8 0.9999999000000001 -9.999999994736442e-08 -1e-07 1.0000001 1.0000001 1e-07 0 2 6 -8 
9 -9.999999994736442e-08 -1e-07 -1e-07 1.0000001 1e-07 1e-07 0 2 2 -6 
10 -9.999999994736442e-08 -1e-07 0.4999999 1.0000001 1e-07 0.5000000999999999 0 2 1 -5 
11 -9.999999994736442e-08 0.9999999000000001 -1e-07 1.0000001 1.0000001 1e-07 0 2 4 -8 
12 -9.999999994736442e-08 0.9999999000000001 0.4999999 1.0000001 1.0000001 0.5000000999999999 0 2 3 -7 
13 -1e-07 -1e-07 0.4999999 1e-07 1e-07 1.0000001 0 2 10 -9 
14 -1e-07 -9.999999994736442e-08 0.9999999000000001 1e-07 1.0000001 1.0000001 0 2 9 -11 
15 -1e-07 0.9999999000000001 0.4999999 1e-07 1.0000001 1.0000001 0 2 12 -11 
16 -1e-07 -9.999999994736442e-08 0.4999999 1e-07 1.0000001 0.5000000999999999 0 2 10 -12 
17 0.9999999000000001 -1e-07 0.4999999 1.0000001 1e-07 1.0000001 0 2 14 -13 
18 0.9999999000000001 -9.999999994736442e-08 0.9999999000000001 1.0000001 1.0000001 1.0000001 0 2 13 -15 
19 0.9999999000000001 0.9999999000000001 0.4999999 1.0000001 1.0000001 1.0000001 0 2 16 -15 
20 0.9999999000000001 -9.999999994736442e-08 0.4999999 1.0000001 1.0000001 0.5000000999999999 0 2 14 -16 
21 -9.999999994736442e-08 -1e-07 0.4999999 1.0000001 1e-07 0.5000000999999999 0 2 10 -14 
22 -9.999999994736442e-08 -1e-07 0.9999999000000001 1.0000001 1e-07 1.0000001 0 2 9 -13 
23 -9.999999994736442e-08 0.9999999000000001 0.4999999 1.0000001 1.0000001 0.5000000999999999 0 2 12 -16 
24 -9.999999994736442e-08 0.9999999000000001 0.9999999000000001 1.0000001 1.0000001 1.0000001 0 2 11 -15 
1 -1e-07 -9.999999994736442e-08 -9.999999997511999e-08 1e-07 1.0000001 0.5000000999999999 0 4 -1 4 3 -2 
2 0.9999999000000001 -9.999999994736442e-08 -9.999999997511999e-08 1.0000001 1.0000001 0.5000000999999999 0 4 -5 8 7 -6 
3 -9.999999994736442e-08 -1e-07 -9.999999997511999e-08 1.0000001 1e-07 0.5000000999999999 0 4 -9 1 10 -5 
4 -9.999999994736442e-08 0.9999999000000001 -9.999999997511999e-08 1.0000001 1.0000001 0.5000000999999999 0 4 -11 3 12 -7 
5 -9.999999994736442e-08 -9.999999994736442e-08 -1e-07 1.0000001 1.0000001 1e-07 0 4 -4 9 8 -11 
6 -9.999999994736442e-08 -9.999999994736442e-08 0.4999999 1.0000001 1.0000001 0.5000000999999999 0 4 -2 10 6 -12 
7 -1e-07 -9.999999994736442e-08 0.4999999 1e-07 1.0000001 1.0000001 0 4 -13 16 15 -14 
8 0.9999999000000001 -9.999999994736442e-08 0.4999999 1.0000001 1.0000001 1.0000001 0 4 -17 20 19 -18 
9 -9.999999994736442e-08 -1e-07 0.4999999 1.0000001 1e-07 1.0000001 0 4 -21 13 22 -17 
10 -9.999999994736442e-08 0.9999999000000001 0.4999999 1.0000001 1.0000001 1.0000001 0 4 -23 15 24 -19 
11 -9.999999994736442e-08 -9.999999994736442e-08 0.4999999 1.0000001 1.0000001 0.5000000999999999 0 4 -16 21 20 -23 
12 -9.999999994736442e-08 -9.999999994736442e-08 0.9999999000000001 1.0000001 1.0000001 1.0000001 0 4 -14 22 18 -24 
1 -9.999999994736442e-08 -9.999999994736442e-08 -9.999999997511999e-08 1.0000001 1.0000001 0.5000000999999999 1 1 6 -1 2 -3 4 -5 6 
2 -9.999999994736442e-08 -9.999999994736442e-08 0.4999999 1.0000001 1.0000001 1.0000001 1 2 6 -7 8 -9 10 -11 12 
$EndEntities
